<?xml version="1.0" encoding="UTF-8"?>
<svg width="18px" height="18px" viewBox="0 0 18 18" version="1.1" xmlns="http://www.w3.org/2000/svg" xmlns:xlink="http://www.w3.org/1999/xlink">
    <!-- Generator: Sketch 55.2 (78181) - https://sketchapp.com -->
    <title>Shape 2</title>
    <desc>Created with Sketch.</desc>
    <g id="页面-1" stroke="none" stroke-width="1" fill="none" fill-rule="evenodd">
        <g id="直播间-表情" transform="translate(-1398.000000, -132.000000)">
            <g id="编组-7" transform="translate(1398.000000, 119.000000)">
                <g id="mail" transform="translate(0.000000, 13.000000)">
                    <rect x="0" y="0" width="20" height="20"></rect>
                    <g id="Shape-2" transform="translate(0.600000, 2.018612)" fill="#303943" fill-rule="nonzero">
                        <path d="M15.5815012,0 L1.35967529,0 C0.608077006,0 2.48689958e-14,0.585530588 2.48689958e-14,1.30926094 L2.48689958e-14,12.6907391 C2.48689958e-14,13.4144694 0.608077006,14 1.35967529,14 L15.5815012,14 C16.3330995,14 16.9411765,13.4144694 16.9411765,12.6907391 L16.9411765,1.30926094 C16.9411765,0.587349006 16.331211,0 15.5815012,0 Z M14.1966356,1.38138787 L9.13373353,5.14619257 L9.10351853,5.16803213 L9.0770804,5.19323163 C8.94866662,5.31418921 8.77493033,5.3797079 8.58797498,5.38138787 C8.58608654,5.38138787 8.58608654,5.38138787 8.5841981,5.38138787 C8.39913119,5.38138787 8.2253949,5.31586918 8.09698112,5.19827153 L8.07054299,5.174752 L2.9,1.38138787 L14.1966356,1.38138787 Z M15.6218259,12.5813879 L1.4,12.5813879 C1.4,12.5813879 1.4,12.5813879 1.4,12.5813879 L1.4,1.88138787 L7.11818998,6.35616159 C7.50343132,6.71844787 8.00953268,6.91752598 8.55340279,6.91752598 C8.55717967,6.91752598 8.55906811,6.91752598 8.56284498,6.91752598 C9.10860354,6.91573249 9.61848177,6.71306738 10.0018347,6.34540061 L15.6237143,1.88318136 L15.6237143,12.5813879 C15.6218259,12.5813879 15.6218259,12.5813879 15.6218259,12.5813879 Z" id="Shape"></path>
                    </g>
                </g>
            </g>
        </g>
    </g>
</svg>